IKResults
version=1
nRows=5
nColumns=63
inDegrees=yes

Units are S.I. units (second, meters, Newtons, ...)
If the header above contains a line with 'inDegrees', this indicates whether rotational values are in degrees (yes) or radians (no).

endheader
time	pelvis_tilt	pelvis_list	pelvis_rotation	pelvis_tx	pelvis_ty	pelvis_tz	hip_flexion_r	hip_adduction_r	hip_rotation_r	knee_angle_r	knee_angle_r_beta	ankle_angle_r	subtalar_angle_r	mtp_angle_r	hip_flexion_l	hip_adduction_l	hip_rotation_l	knee_angle_l	knee_angle_l_beta	ankle_angle_l	subtalar_angle_l	mtp_angle_l	L5_S1_Flex_Ext	L5_S1_Lat_Bending	L5_S1_axial_rotation	L4_L5_Flex_Ext	L4_L5_Lat_Bending	L4_L5_axial_rotation	L3_L4_Flex_Ext	L3_L4_Lat_Bending	L3_L4_axial_rotation	L2_L3_Flex_Ext	L2_L3_Lat_Bending	L2_L3_axial_rotation	L1_L2_Flex_Ext	L1_L2_Lat_Bending	L1_L2_axial_rotation	L1_T12_Flex_Ext	L1_T12_Lat_Bending	L1_T12_axial_rotation	Abs_r3	Abs_r2	Abs_r1	Abs_t1	Abs_t2	neck_flexion	neck_bending	neck_rotation	arm_flex_r	arm_add_r	arm_rot_r	elbow_flex_r	pro_sup_r	wrist_flex_r	wrist_dev_r	arm_flex_l	arm_add_l	arm_rot_l	elbow_flex_l	pro_sup_l	wrist_flex_l	wrist_dev_l
      0.03333333	     11.57519675	     -4.75394919	    -30.74686775	     -1.54560179	      0.95992642	     -0.65779914	    -19.83975514	     -8.24920350	    -32.64860161	      2.59195286	      0.04523811	     17.07308783	      6.56016744	      0.00000000	    -17.27433315	     -6.45567877	    -11.15446734	      6.70379320	      0.11700326	     12.33621864	    -11.19874713	      0.00000000	     -2.87088107	     -0.21503771	     -0.38265270	     -5.33151324	     -0.28600016	     -0.40656850	     -4.71657051	     -0.52284270	     -0.40656850	     -3.28112998	     -0.52284270	     -0.33482111	     -2.66590016	     -0.43850491	     -0.31090532	     -1.64042145	     -0.33309342	     -0.28698953	    -20.50641642	     -2.43254962	     -2.12819953	      0.00000000	      0.00000000	      7.90700912	     -5.61553476	    -19.62124890	      0.00000000	    -90.00000009	      0.00000000	     72.45654742	     89.99559364	      0.00000000	      0.00000000	     12.87502302	    -17.59604574	     70.42088778	     22.49663579	     89.99559364	      0.00000000	      0.00000000
      0.06666667	     11.71992989	     -4.72369306	    -30.41921154	     -1.54584069	      0.96010159	     -0.65792507	    -20.04208312	     -8.23501767	    -32.84238971	      2.60926261	      0.04554022	     17.10491769	      6.48335687	      0.00000000	    -17.18332132	     -6.51047525	    -10.95122215	      6.95348189	      0.12136115	     12.34191148	    -11.14374210	      0.00000000	     -2.90612065	     -0.21804317	     -0.40280652	     -5.39695667	     -0.28999741	     -0.42798193	     -4.77446562	     -0.53015016	     -0.42798193	     -3.32140530	     -0.53015016	     -0.35245571	     -2.69862364	     -0.44463363	     -0.32728030	     -1.66055734	     -0.33774887	     -0.30210489	    -20.75812922	     -2.46654791	     -2.24028904	      0.00000000	      0.00000000	      8.18197082	     -5.33503259	    -19.21461858	      0.00000000	    -90.00000009	      0.00000000	     72.46864946	     89.99559364	      0.00000000	      0.00000000	     13.14889902	    -17.66954154	     70.36692931	     22.55496873	     89.99559364	      0.00000000	      0.00000000
      0.10000000	     11.72218448	     -4.60233584	    -30.12884666	     -1.54569961	      0.96007692	     -0.65759574	    -20.12728743	     -8.23373612	    -32.87370345	      2.61002266	      0.04555349	     17.15932220	      6.45897756	      0.00000000	    -17.02840019	     -6.53342534	    -10.88779597	      7.01923673	      0.12250879	     12.24005703	    -11.08376243	      0.00000000	     -2.91240824	     -0.21827184	     -0.37005821	     -5.40863334	     -0.29030155	     -0.39318685	     -4.78479549	     -0.53070615	     -0.39318685	     -3.32859138	     -0.53070615	     -0.32380093	     -2.70446229	     -0.44509994	     -0.30067229	     -1.66415007	     -0.33810308	     -0.27754366	    -20.80304081	     -2.46913471	     -2.05815273	      0.00000000	      0.00000000	      8.22114030	     -5.27785578	    -19.07020250	      0.00000000	    -90.00000009	      0.00000000	     72.46968973	     89.99559364	      0.00000000	      0.00000000	     13.49948168	    -17.67863084	     70.29311194	     22.59586550	     89.99559364	      0.00000000	      0.00000000
      0.13333333	     12.77236685	     -4.85441153	    -28.75262981	     -1.54701162	      0.96152937	     -0.65886868	    -21.52041066	     -8.00610394	    -33.86024127	      2.58867906	      0.04518097	     17.04460605	      6.07550980	      0.00000000	    -17.30107582	     -6.81211034	     -9.75430903	      7.92072210	      0.13824268	     12.34940950	    -10.92692411	      0.00000000	     -3.16010506	     -0.21582066	     -0.53892942	     -5.86863110	     -0.28704148	     -0.57261251	     -5.19173660	     -0.52474636	     -0.57261251	     -3.61168407	     -0.52474636	     -0.47156325	     -2.93447356	     -0.44010150	     -0.43788016	     -1.80568403	     -0.33430621	     -0.40419707	    -22.57231441	     -2.44140650	     -2.99736378	      0.00000000	      0.00000000	      9.97744608	     -4.05460851	    -16.74548078	      0.00000000	    -90.00000009	      0.00000000	     72.49402918	     89.99559364	      0.00000000	      0.00000000	     14.43972585	    -18.03846485	     69.89082395	     23.12066397	     89.99559364	      0.00000000	      0.00000000
      0.16666667	     13.59445218	     -5.01007817	    -27.72773689	     -1.54806141	      0.96266512	     -0.65940235	    -22.55419846	     -7.87791743	    -34.51142898	      2.71443438	      0.04737582	     17.05830960	      5.84831447	      0.00000000	    -17.52586806	     -7.00123388	     -8.90557388	      8.54721445	      0.14917703	     12.36234077	    -10.97959908	      0.00000000	     -3.36504275	     -0.21118800	     -0.61699869	     -6.24922090	     -0.28088005	     -0.65556111	     -5.52842874	     -0.51348251	     -0.65556111	     -3.84590736	     -0.51348251	     -0.53987386	     -3.12477870	     -0.43065458	     -0.50131144	     -1.92278543	     -0.32713022	     -0.46274902	    -24.03616388	     -2.38900095	     -3.43156164	      0.00000000	      0.00000000	     11.49486784	     -2.98375709	    -15.13634908	      0.00000000	    -90.00000009	      0.00000000	     72.51693880	     89.99559364	      0.00000000	      0.00000000	     15.32477352	    -18.24077297	     69.22413995	     23.50862037	     89.99559364	      0.00000000	      0.00000000
